<svg xmlns="http://www.w3.org/2000/svg" version="1.1" xmlns:xlink="http://www.w3.org/1999/xlink" xmlns:svgjs="http://svgjs.dev/svgjs" viewBox="0 0 1422 800"><g stroke-width="1" stroke="#ffffff" fill="none" stroke-linecap="butt"><line x1="0" y1="0" x2="66" y2="66"></line><line x1="132" y1="0" x2="66" y2="66"></line><line x1="132" y1="0" x2="198" y2="66"></line><line x1="264" y1="0" x2="198" y2="66"></line><line x1="330" y1="0" x2="264" y2="66"></line><line x1="330" y1="0" x2="396" y2="66"></line><line x1="396" y1="0" x2="462" y2="66"></line><line x1="528" y1="0" x2="462" y2="66"></line><line x1="594" y1="0" x2="528" y2="66"></line><line x1="660" y1="0" x2="594" y2="66"></line><line x1="660" y1="0" x2="726" y2="66"></line><line x1="792" y1="0" x2="726" y2="66"></line><line x1="792" y1="0" x2="858" y2="66"></line><line x1="858" y1="0" x2="924" y2="66"></line><line x1="990" y1="0" x2="924" y2="66"></line><line x1="1056" y1="0" x2="990" y2="66"></line><line x1="1122" y1="0" x2="1056" y2="66"></line><line x1="1122" y1="0" x2="1188" y2="66"></line><line x1="1254" y1="0" x2="1188" y2="66"></line><line x1="1254" y1="0" x2="1320" y2="66"></line><line x1="1320" y1="0" x2="1386" y2="66"></line><line x1="1452" y1="0" x2="1386" y2="66"></line><line x1="0" y1="66" x2="66" y2="132"></line><line x1="66" y1="66" x2="132" y2="132"></line><line x1="132" y1="66" x2="198" y2="132"></line><line x1="264" y1="66" x2="198" y2="132"></line><line x1="264" y1="66" x2="330" y2="132"></line><line x1="396" y1="66" x2="330" y2="132"></line><line x1="462" y1="66" x2="396" y2="132"></line><line x1="462" y1="66" x2="528" y2="132"></line><line x1="528" y1="66" x2="594" y2="132"></line><line x1="594" y1="66" x2="660" y2="132"></line><line x1="726" y1="66" x2="660" y2="132"></line><line x1="792" y1="66" x2="726" y2="132"></line><line x1="858" y1="66" x2="792" y2="132"></line><line x1="858" y1="66" x2="924" y2="132"></line><line x1="924" y1="66" x2="990" y2="132"></line><line x1="990" y1="66" x2="1056" y2="132"></line><line x1="1056" y1="66" x2="1122" y2="132"></line><line x1="1122" y1="66" x2="1188" y2="132"></line><line x1="1254" y1="66" x2="1188" y2="132"></line><line x1="1254" y1="66" x2="1320" y2="132"></line><line x1="1386" y1="66" x2="1320" y2="132"></line><line x1="1386" y1="66" x2="1452" y2="132"></line><line x1="0" y1="132" x2="66" y2="198"></line><line x1="132" y1="132" x2="66" y2="198"></line><line x1="132" y1="132" x2="198" y2="198"></line><line x1="198" y1="132" x2="264" y2="198"></line><line x1="264" y1="132" x2="330" y2="198"></line><line x1="330" y1="132" x2="396" y2="198"></line><line x1="396" y1="132" x2="462" y2="198"></line><line x1="528" y1="132" x2="462" y2="198"></line><line x1="594" y1="132" x2="528" y2="198"></line><line x1="660" y1="132" x2="594" y2="198"></line><line x1="660" y1="132" x2="726" y2="198"></line><line x1="726" y1="132" x2="792" y2="198"></line><line x1="792" y1="132" x2="858" y2="198"></line><line x1="924" y1="132" x2="858" y2="198"></line><line x1="990" y1="132" x2="924" y2="198"></line><line x1="990" y1="132" x2="1056" y2="198"></line><line x1="1056" y1="132" x2="1122" y2="198"></line><line x1="1122" y1="132" x2="1188" y2="198"></line><line x1="1188" y1="132" x2="1254" y2="198"></line><line x1="1320" y1="132" x2="1254" y2="198"></line><line x1="1386" y1="132" x2="1320" y2="198"></line><line x1="1452" y1="132" x2="1386" y2="198"></line><line x1="66" y1="198" x2="0" y2="264"></line><line x1="66" y1="198" x2="132" y2="264"></line><line x1="198" y1="198" x2="132" y2="264"></line><line x1="264" y1="198" x2="198" y2="264"></line><line x1="264" y1="198" x2="330" y2="264"></line><line x1="396" y1="198" x2="330" y2="264"></line><line x1="462" y1="198" x2="396" y2="264"></line><line x1="528" y1="198" x2="462" y2="264"></line><line x1="528" y1="198" x2="594" y2="264"></line><line x1="660" y1="198" x2="594" y2="264"></line><line x1="726" y1="198" x2="660" y2="264"></line><line x1="792" y1="198" x2="726" y2="264"></line><line x1="792" y1="198" x2="858" y2="264"></line><line x1="924" y1="198" x2="858" y2="264"></line><line x1="990" y1="198" x2="924" y2="264"></line><line x1="1056" y1="198" x2="990" y2="264"></line><line x1="1056" y1="198" x2="1122" y2="264"></line><line x1="1188" y1="198" x2="1122" y2="264"></line><line x1="1254" y1="198" x2="1188" y2="264"></line><line x1="1320" y1="198" x2="1254" y2="264"></line><line x1="1320" y1="198" x2="1386" y2="264"></line><line x1="1452" y1="198" x2="1386" y2="264"></line><line x1="66" y1="264" x2="0" y2="330"></line><line x1="66" y1="264" x2="132" y2="330"></line><line x1="198" y1="264" x2="132" y2="330"></line><line x1="264" y1="264" x2="198" y2="330"></line><line x1="330" y1="264" x2="264" y2="330"></line><line x1="396" y1="264" x2="330" y2="330"></line><line x1="462" y1="264" x2="396" y2="330"></line><line x1="528" y1="264" x2="462" y2="330"></line><line x1="528" y1="264" x2="594" y2="330"></line><line x1="594" y1="264" x2="660" y2="330"></line><line x1="726" y1="264" x2="660" y2="330"></line><line x1="792" y1="264" x2="726" y2="330"></line><line x1="858" y1="264" x2="792" y2="330"></line><line x1="858" y1="264" x2="924" y2="330"></line><line x1="990" y1="264" x2="924" y2="330"></line><line x1="1056" y1="264" x2="990" y2="330"></line><line x1="1056" y1="264" x2="1122" y2="330"></line><line x1="1188" y1="264" x2="1122" y2="330"></line><line x1="1188" y1="264" x2="1254" y2="330"></line><line x1="1320" y1="264" x2="1254" y2="330"></line><line x1="1386" y1="264" x2="1320" y2="330"></line><line x1="1386" y1="264" x2="1452" y2="330"></line><line x1="0" y1="330" x2="66" y2="396"></line><line x1="132" y1="330" x2="66" y2="396"></line><line x1="198" y1="330" x2="132" y2="396"></line><line x1="264" y1="330" x2="198" y2="396"></line><line x1="264" y1="330" x2="330" y2="396"></line><line x1="330" y1="330" x2="396" y2="396"></line><line x1="396" y1="330" x2="462" y2="396"></line><line x1="528" y1="330" x2="462" y2="396"></line><line x1="528" y1="330" x2="594" y2="396"></line><line x1="660" y1="330" x2="594" y2="396"></line><line x1="660" y1="330" x2="726" y2="396"></line><line x1="792" y1="330" x2="726" y2="396"></line><line x1="792" y1="330" x2="858" y2="396"></line><line x1="858" y1="330" x2="924" y2="396"></line><line x1="924" y1="330" x2="990" y2="396"></line><line x1="1056" y1="330" x2="990" y2="396"></line><line x1="1056" y1="330" x2="1122" y2="396"></line><line x1="1122" y1="330" x2="1188" y2="396"></line><line x1="1188" y1="330" x2="1254" y2="396"></line><line x1="1320" y1="330" x2="1254" y2="396"></line><line x1="1320" y1="330" x2="1386" y2="396"></line><line x1="1452" y1="330" x2="1386" y2="396"></line><line x1="0" y1="396" x2="66" y2="462"></line><line x1="66" y1="396" x2="132" y2="462"></line><line x1="132" y1="396" x2="198" y2="462"></line><line x1="198" y1="396" x2="264" y2="462"></line><line x1="264" y1="396" x2="330" y2="462"></line><line x1="330" y1="396" x2="396" y2="462"></line><line x1="462" y1="396" x2="396" y2="462"></line><line x1="528" y1="396" x2="462" y2="462"></line><line x1="594" y1="396" x2="528" y2="462"></line><line x1="594" y1="396" x2="660" y2="462"></line><line x1="726" y1="396" x2="660" y2="462"></line><line x1="726" y1="396" x2="792" y2="462"></line><line x1="792" y1="396" x2="858" y2="462"></line><line x1="924" y1="396" x2="858" y2="462"></line><line x1="990" y1="396" x2="924" y2="462"></line><line x1="1056" y1="396" x2="990" y2="462"></line><line x1="1122" y1="396" x2="1056" y2="462"></line><line x1="1188" y1="396" x2="1122" y2="462"></line><line x1="1254" y1="396" x2="1188" y2="462"></line><line x1="1254" y1="396" x2="1320" y2="462"></line><line x1="1386" y1="396" x2="1320" y2="462"></line><line x1="1386" y1="396" x2="1452" y2="462"></line><line x1="0" y1="462" x2="66" y2="528"></line><line x1="132" y1="462" x2="66" y2="528"></line><line x1="132" y1="462" x2="198" y2="528"></line><line x1="264" y1="462" x2="198" y2="528"></line><line x1="330" y1="462" x2="264" y2="528"></line><line x1="330" y1="462" x2="396" y2="528"></line><line x1="462" y1="462" x2="396" y2="528"></line><line x1="462" y1="462" x2="528" y2="528"></line><line x1="528" y1="462" x2="594" y2="528"></line><line x1="660" y1="462" x2="594" y2="528"></line><line x1="726" y1="462" x2="660" y2="528"></line><line x1="792" y1="462" x2="726" y2="528"></line><line x1="858" y1="462" x2="792" y2="528"></line><line x1="858" y1="462" x2="924" y2="528"></line><line x1="924" y1="462" x2="990" y2="528"></line><line x1="990" y1="462" x2="1056" y2="528"></line><line x1="1056" y1="462" x2="1122" y2="528"></line><line x1="1188" y1="462" x2="1122" y2="528"></line><line x1="1188" y1="462" x2="1254" y2="528"></line><line x1="1320" y1="462" x2="1254" y2="528"></line><line x1="1386" y1="462" x2="1320" y2="528"></line><line x1="1452" y1="462" x2="1386" y2="528"></line><line x1="0" y1="528" x2="66" y2="594"></line><line x1="66" y1="528" x2="132" y2="594"></line><line x1="198" y1="528" x2="132" y2="594"></line><line x1="264" y1="528" x2="198" y2="594"></line><line x1="330" y1="528" x2="264" y2="594"></line><line x1="396" y1="528" x2="330" y2="594"></line><line x1="396" y1="528" x2="462" y2="594"></line><line x1="528" y1="528" x2="462" y2="594"></line><line x1="528" y1="528" x2="594" y2="594"></line><line x1="594" y1="528" x2="660" y2="594"></line><line x1="726" y1="528" x2="660" y2="594"></line><line x1="726" y1="528" x2="792" y2="594"></line><line x1="858" y1="528" x2="792" y2="594"></line><line x1="924" y1="528" x2="858" y2="594"></line><line x1="990" y1="528" x2="924" y2="594"></line><line x1="990" y1="528" x2="1056" y2="594"></line><line x1="1122" y1="528" x2="1056" y2="594"></line><line x1="1188" y1="528" x2="1122" y2="594"></line><line x1="1188" y1="528" x2="1254" y2="594"></line><line x1="1254" y1="528" x2="1320" y2="594"></line><line x1="1386" y1="528" x2="1320" y2="594"></line><line x1="1386" y1="528" x2="1452" y2="594"></line><line x1="0" y1="594" x2="66" y2="660"></line><line x1="132" y1="594" x2="66" y2="660"></line><line x1="198" y1="594" x2="132" y2="660"></line><line x1="198" y1="594" x2="264" y2="660"></line><line x1="330" y1="594" x2="264" y2="660"></line><line x1="396" y1="594" x2="330" y2="660"></line><line x1="396" y1="594" x2="462" y2="660"></line><line x1="462" y1="594" x2="528" y2="660"></line><line x1="594" y1="594" x2="528" y2="660"></line><line x1="660" y1="594" x2="594" y2="660"></line><line x1="660" y1="594" x2="726" y2="660"></line><line x1="792" y1="594" x2="726" y2="660"></line><line x1="792" y1="594" x2="858" y2="660"></line><line x1="858" y1="594" x2="924" y2="660"></line><line x1="990" y1="594" x2="924" y2="660"></line><line x1="990" y1="594" x2="1056" y2="660"></line><line x1="1122" y1="594" x2="1056" y2="660"></line><line x1="1122" y1="594" x2="1188" y2="660"></line><line x1="1188" y1="594" x2="1254" y2="660"></line><line x1="1254" y1="594" x2="1320" y2="660"></line><line x1="1386" y1="594" x2="1320" y2="660"></line><line x1="1386" y1="594" x2="1452" y2="660"></line><line x1="0" y1="660" x2="66" y2="726"></line><line x1="132" y1="660" x2="66" y2="726"></line><line x1="132" y1="660" x2="198" y2="726"></line><line x1="198" y1="660" x2="264" y2="726"></line><line x1="330" y1="660" x2="264" y2="726"></line><line x1="330" y1="660" x2="396" y2="726"></line><line x1="462" y1="660" x2="396" y2="726"></line><line x1="528" y1="660" x2="462" y2="726"></line><line x1="594" y1="660" x2="528" y2="726"></line><line x1="594" y1="660" x2="660" y2="726"></line><line x1="726" y1="660" x2="660" y2="726"></line><line x1="726" y1="660" x2="792" y2="726"></line><line x1="858" y1="660" x2="792" y2="726"></line><line x1="924" y1="660" x2="858" y2="726"></line><line x1="990" y1="660" x2="924" y2="726"></line><line x1="1056" y1="660" x2="990" y2="726"></line><line x1="1122" y1="660" x2="1056" y2="726"></line><line x1="1188" y1="660" x2="1122" y2="726"></line><line x1="1188" y1="660" x2="1254" y2="726"></line><line x1="1254" y1="660" x2="1320" y2="726"></line><line x1="1386" y1="660" x2="1320" y2="726"></line><line x1="1386" y1="660" x2="1452" y2="726"></line><line x1="66" y1="726" x2="0" y2="792"></line><line x1="132" y1="726" x2="66" y2="792"></line><line x1="198" y1="726" x2="132" y2="792"></line><line x1="264" y1="726" x2="198" y2="792"></line><line x1="330" y1="726" x2="264" y2="792"></line><line x1="330" y1="726" x2="396" y2="792"></line><line x1="462" y1="726" x2="396" y2="792"></line><line x1="528" y1="726" x2="462" y2="792"></line><line x1="528" y1="726" x2="594" y2="792"></line><line x1="660" y1="726" x2="594" y2="792"></line><line x1="726" y1="726" x2="660" y2="792"></line><line x1="792" y1="726" x2="726" y2="792"></line><line x1="858" y1="726" x2="792" y2="792"></line><line x1="924" y1="726" x2="858" y2="792"></line><line x1="924" y1="726" x2="990" y2="792"></line><line x1="990" y1="726" x2="1056" y2="792"></line><line x1="1056" y1="726" x2="1122" y2="792"></line><line x1="1122" y1="726" x2="1188" y2="792"></line><line x1="1254" y1="726" x2="1188" y2="792"></line><line x1="1254" y1="726" x2="1320" y2="792"></line><line x1="1320" y1="726" x2="1386" y2="792"></line><line x1="1452" y1="726" x2="1386" y2="792"></line><line x1="0" y1="792" x2="66" y2="858"></line><line x1="132" y1="792" x2="66" y2="858"></line><line x1="198" y1="792" x2="132" y2="858"></line><line x1="264" y1="792" x2="198" y2="858"></line><line x1="264" y1="792" x2="330" y2="858"></line><line x1="330" y1="792" x2="396" y2="858"></line><line x1="462" y1="792" x2="396" y2="858"></line><line x1="528" y1="792" x2="462" y2="858"></line><line x1="528" y1="792" x2="594" y2="858"></line><line x1="594" y1="792" x2="660" y2="858"></line><line x1="726" y1="792" x2="660" y2="858"></line><line x1="792" y1="792" x2="726" y2="858"></line><line x1="792" y1="792" x2="858" y2="858"></line><line x1="858" y1="792" x2="924" y2="858"></line><line x1="924" y1="792" x2="990" y2="858"></line><line x1="990" y1="792" x2="1056" y2="858"></line><line x1="1056" y1="792" x2="1122" y2="858"></line><line x1="1188" y1="792" x2="1122" y2="858"></line><line x1="1254" y1="792" x2="1188" y2="858"></line><line x1="1320" y1="792" x2="1254" y2="858"></line><line x1="1386" y1="792" x2="1320" y2="858"></line><line x1="1386" y1="792" x2="1452" y2="858"></line></g></svg>